<?xml version="1.0" encoding="utf-8"?>
<!-- Generator: Adobe Illustrator 14.0.0, SVG Export Plug-In . SVG Version: 6.00 Build 43363)  -->
<!DOCTYPE svg PUBLIC "-//W3C//DTD SVG 1.1//EN" "http://www.w3.org/Graphics/SVG/1.1/DTD/svg11.dtd">
<svg version="1.1" xmlns="http://www.w3.org/2000/svg" xmlns:xlink="http://www.w3.org/1999/xlink" x="0px" y="0px" width="2272px"
	 height="1872px" viewBox="0 0 2272 1872" enable-background="new 0 0 2272 1872" xml:space="preserve">
<g id="Background">
	<rect fill="#5221e600" width="2272" height="1872"/>
</g>
<g id="_x36_">
	<ellipse fill="#f3ec28" cx="1159" cy="1571.297" rx="1018" ry="53.502"/>
</g>
<g id="_x35_">
	<g>
		<path fill="#FFFFFF" stroke="#3A3A3A" stroke-width="31.1811" stroke-miterlimit="10" d="M1698.441,824.819H649.589
			c-29.783,0-53.926-24.144-53.926-53.926V209.667c0-29.782,24.144-53.926,53.926-53.926h1048.852
			c29.783,0,53.927,24.144,53.927,53.926v561.227C1752.368,800.676,1728.225,824.819,1698.441,824.819z"/>
		<g>
			<circle fill="#F7F3E8" cx="1196.887" cy="551.312" r="200.712"/>
			<g>
				<path fill="#54C2D9" d="M795.391,527.437c-50.677,0-91.76,41.083-91.76,91.76c0,50.677,41.083,91.76,91.76,91.76V527.437z"/>
				<path fill="#FE4E63" d="M804.269,710.957c50.678,0,91.76-41.083,91.76-91.76h-91.76V710.957z"/>
				<path fill="#76AF4E" d="M804.269,516.693c50.678,0,91.76,41.083,91.76,91.76h-91.76V516.693z"/>
			</g>
			<g>
				<g>
					<g>
						<rect x="1281.099" y="551.312" fill="#A19FA0" width="405.192" height="15.396"/>
						<rect x="1281.099" y="586.884" fill="#A19FA0" width="405.192" height="15.396"/>
						<rect x="1281.099" y="619.148" fill="#A19FA0" width="405.192" height="15.396"/>
						<rect x="1281.099" y="650.198" fill="#A19FA0" width="405.192" height="15.396"/>
					</g>
				</g>
			</g>
			<g>
				<g>
					<path fill="#3A3A3A" d="M1214.362,561.89h-28.181c-12.568,0-22.758-10.189-22.758-22.757v-63.058h73.696v63.058
						C1237.12,551.701,1226.931,561.89,1214.362,561.89z"/>
					<path fill="#FFD400" d="M1287.053,364.03c0-47.927-38.853-86.781-86.78-86.781s-86.781,38.854-86.781,86.781
						c0,34.752,20.431,64.728,49.933,78.585v59.841h73.696v-59.841C1266.622,428.758,1287.053,398.782,1287.053,364.03z"/>
					<g>
						<path fill="#FFFFFF" d="M1200.271,505.08c-1.449,0-2.623-1.175-2.623-2.624V400.935l2.241-0.33
							c0.119-0.021,15.211-3.032,15.211-35.464c0-8.205-2.31-14.527-6.862-18.791c-3.708-3.471-8.819-5.383-14.393-5.383
							c-8.355,0-15.152,4.256-15.152,9.487c0,0.883-0.005,1.758-0.01,2.624c-0.045,8.183-0.084,15.25,4.018,19.375
							c3.179,3.197,8.926,4.75,17.57,4.75c1.449,0,2.624,1.175,2.624,2.624s-1.175,2.624-2.624,2.624
							c-10.253,0-17.019-2.001-21.291-6.297c-5.642-5.672-5.595-14.14-5.545-23.105c0.005-0.856,0.01-1.722,0.01-2.595
							c0-8.263,8.961-14.735,20.4-14.735c6.91,0,13.295,2.415,17.979,6.8c5.576,5.221,8.522,13.043,8.522,22.622
							c0,30.085-12.269,38.007-17.452,40.011v97.304C1202.896,503.905,1201.721,505.08,1200.271,505.08z"/>
					</g>
				</g>
				<path fill="#FFD400" d="M1192.866,249.24L1192.866,249.24c-4.09,0-7.405-3.315-7.405-7.406v-36.103
					c0-4.09,3.315-7.406,7.405-7.406l0,0c4.09,0,7.406,3.316,7.406,7.406v36.103C1200.272,245.924,1196.956,249.24,1192.866,249.24z
					"/>
				<path fill="#FFD400" d="M1112.222,257.936L1112.222,257.936c-2.892,2.892-7.581,2.892-10.473,0l-25.528-25.528
					c-2.892-2.892-2.892-7.581,0-10.473l0,0c2.892-2.892,7.581-2.892,10.473,0l25.528,25.528
					C1115.114,250.355,1115.114,255.044,1112.222,257.936z"/>
				<path fill="#FFD400" d="M1079.339,335.719L1079.339,335.719c0,4.09-3.316,7.406-7.406,7.406h-36.103
					c-4.09,0-7.405-3.316-7.405-7.406l0,0c0-4.09,3.315-7.406,7.405-7.406h36.103
					C1076.023,328.313,1079.339,331.628,1079.339,335.719z"/>
				<path fill="#FFD400" d="M1375.438,335.719L1375.438,335.719c0,4.09-3.315,7.406-7.405,7.406h-36.103
					c-4.09,0-7.406-3.316-7.406-7.406l0,0c0-4.09,3.316-7.406,7.406-7.406h36.103
					C1372.122,328.313,1375.438,331.628,1375.438,335.719z"/>
				<path fill="#FFD400" d="M1292.968,257.936L1292.968,257.936c-2.893-2.892-2.893-7.581,0-10.473l25.528-25.528
					c2.892-2.892,7.581-2.892,10.473,0l0,0c2.893,2.892,2.893,7.581,0,10.473l-25.528,25.528
					C1300.549,260.828,1295.859,260.828,1292.968,257.936z"/>
			</g>
			<g>
				<rect x="666.446" y="251.697" fill="#54C2D9" width="27.69" height="27.69"/>
				<rect x="666.446" y="315.697" fill="#FE4E63" width="27.69" height="27.69"/>
				<rect x="666.446" y="383.938" fill="#76AF4E" width="27.69" height="27.69"/>
				<rect x="718.636" y="260.313" fill="#A19FA0" width="230.364" height="10.458"/>
				<rect x="718.636" y="324.313" fill="#A19FA0" width="230.364" height="10.458"/>
				<rect x="718.636" y="392.554" fill="#A19FA0" width="230.364" height="10.458"/>
			</g>
			<g>
				<rect x="1537.925" y="303.302" fill="#FE4E63" width="35.286" height="118.314"/>
				<rect x="1468.049" y="239.14" fill="#54C2D9" width="35.286" height="182.477"/>
				<rect x="1606.953" y="338.6" fill="#76AF4E" width="35.286" height="83.017"/>
			</g>
			<g>
				<rect x="944.169" y="515.499" fill="#A19FA0" width="130.338" height="7.326"/>
				<rect x="944.169" y="540.05" fill="#A19FA0" width="130.338" height="7.326"/>
				<rect x="944.169" y="564.602" fill="#A19FA0" width="130.338" height="7.325"/>
				<rect x="944.169" y="589.153" fill="#A19FA0" width="130.338" height="7.326"/>
				<rect x="944.169" y="613.705" fill="#A19FA0" width="81.5" height="7.326"/>
			</g>
			<g>
				<rect x="944.169" y="646.323" fill="#A19FA0" width="130.338" height="7.326"/>
				<rect x="944.169" y="670.875" fill="#A19FA0" width="130.338" height="7.325"/>
				<rect x="944.169" y="695.426" fill="#A19FA0" width="130.338" height="7.326"/>
				<rect x="944.169" y="719.978" fill="#A19FA0" width="130.338" height="7.326"/>
				<rect x="944.169" y="744.529" fill="#A19FA0" width="81.5" height="7.326"/>
			</g>
		</g>
	</g>
</g>
<g id="_x34_">
	<g>
		<g>
			<rect x="1336.087" y="1338.32" fill="#0F102E" width="15.282" height="88.073"/>
			<path fill="#513118" d="M1314.888,1190.22v-174.813c0-21.592,17.504-39.096,39.097-39.096h137.808
				c21.592,0,39.096,17.504,39.096,39.096v238.813c0,53.415-43.302,96.717-96.716,96.717h-303.284l0,0c0-35.347,28.654-64,64-64
				h23.284C1271.586,1286.937,1314.888,1243.635,1314.888,1190.22z"/>
			<path fill="#422414" d="M1434.172,1350.937h-303.284l0,0c0-35.347,28.654-64,64-64h23.284c4.994,0,9.899-0.379,14.689-1.109
				H1525.6C1512.501,1323.72,1476.517,1350.937,1434.172,1350.937z"/>
		</g>
		<g>
			<g>
				<path fill="#4F4F4F" d="M1283.761,1473.992h18.116h1.59h80.091h0.423h19.283c21.995,0,39.89,17.895,39.89,39.891v32.18h-12.475
					v-12.475v-17.468v-2.237c0-15.117-12.298-27.415-27.415-27.415h-19.283h-0.423h-80.091h-1.59h-18.116
					c-15.116,0-27.415,12.298-27.415,27.415v2.237v17.468v12.475h-12.475v-32.18
					C1243.871,1491.887,1261.766,1473.992,1283.761,1473.992z"/>
				<path fill="#110E2B" d="M1239.92,1569.468L1239.92,1569.468c9.128,0,16.527-7.399,16.527-16.527v-16.527h-16.527
					c-9.128,0-16.527,7.399-16.527,16.527l0,0C1223.393,1562.068,1230.792,1569.468,1239.92,1569.468z"/>
				<path fill="#110E2B" d="M1447.254,1569.59L1447.254,1569.59c-9.128,0-16.527-7.399-16.527-16.527v-16.527h16.527
					c9.128,0,16.527,7.4,16.527,16.527l0,0C1463.781,1562.19,1456.382,1569.59,1447.254,1569.59z"/>
			</g>
			<rect x="1334.087" y="1382.357" fill="#8F9293" width="19.282" height="93.109"/>
			<g>
				<path fill="#8F9293" d="M1323.881,1473.688h39.412c21.995,0,39.89,17.894,39.89,39.89v32.18h-12.475v-12.475v-17.468v-2.237
					c0-15.117-12.298-27.415-27.415-27.415h-39.412c-15.117,0-27.415,12.298-27.415,27.415v2.237v17.468v12.475h-12.475v-32.18
					C1283.991,1491.582,1301.886,1473.688,1323.881,1473.688z"/>
				<path fill="#110E2B" d="M1280.098,1569.163L1280.098,1569.163c9.128,0,16.527-7.399,16.527-16.527v-16.527h-16.527
					c-9.127,0-16.527,7.399-16.527,16.527l0,0C1263.57,1561.764,1270.971,1569.163,1280.098,1569.163z"/>
				<path fill="#110E2B" d="M1407.283,1569.285L1407.283,1569.285c-9.128,0-16.527-7.399-16.527-16.527v-16.527h16.527
					c9.128,0,16.527,7.399,16.527,16.527l0,0C1423.811,1561.886,1416.411,1569.285,1407.283,1569.285z"/>
			</g>
		</g>
		<g>
			<rect x="1240.4" y="1513.113" fill="#F6C286" width="24.904" height="24.903"/>
			<path fill="#492A15" d="M1194.243,1570.017h60.062c6.075,0,11-4.925,11-11v-21h-55.939c-13.012,0-23.561,10.549-23.561,23.562
				l0,0C1185.805,1566.238,1189.583,1570.017,1194.243,1570.017z"/>
		</g>
		<g>
			<rect x="1139.734" y="1513.113" fill="#F6C286" width="24.903" height="24.903"/>
			<path fill="#492A15" d="M1093.577,1570.017h60.061c6.075,0,11-4.925,11-11v-21h-55.939c-13.012,0-23.561,10.549-23.561,23.562
				l0,0C1085.138,1566.238,1088.916,1570.017,1093.577,1570.017z"/>
		</g>
		<g>
			<path fill="#F6C286" d="M1053.218,1122.296l160.139-25.356c10.823-1.136,19.041-10.261,19.041-21.144v-99.84l-42.52-3.842v84.536
				l-142.762,42.538L1053.218,1122.296z"/>
		</g>
		<path fill="#4E6F93" d="M1346.199,1187.633v22.32c0,44.119-30.445,79.886-68,79.886H1155.4c-9.256,0-16.286,9.781-14.734,20.501
			l31.033,214.456h-34l-58.011-207.875c-13.519-48.441,12.255-99.815,54.877-109.387l88.633-19.901H1346.199z"/>
		<polygon fill="#EE3F24" points="1236.138,1151.1 1444.138,1151.1 1444.138,842.423 1374.138,822.099 1306.137,822.099 
			1236.138,842.423 		"/>
		<path fill="#EFAE6F" d="M1328.243,888.668L1328.243,888.668c18.778,0,34-15.223,34-34v-79h-68v79
			C1294.243,873.445,1309.466,888.668,1328.243,888.668z"/>
		<g>
			<path fill="#F6C286" d="M1307.453,839.097L1307.453,839.097c50.758-2.305,90.037-45.32,87.732-96.078l-2.223-48.95
				c-1.929-42.482-37.931-75.357-80.413-73.428l-14.984,0.681c-42.482,1.928-75.357,37.931-73.429,80.413l2.903,63.935
				C1228.969,808.15,1264.971,841.025,1307.453,839.097z"/>
			<path fill="#CA884B" d="M1361.862,626.41c17.755,14.025,29.66,35.922,30.798,60.98l2.331,51.353
				c0.091,2.008,0.116,4.002,0.091,5.984c-16.615-6.231-28.869-22.489-29.759-42.093L1361.862,626.41z"/>
			<path fill="#8F5201" d="M1200.889,696.783l24.503-6.503c13.922-3.695,28.311-5.328,42.707-4.845l105.112,3.524
				c10.759-0.488,19.084-9.606,18.596-20.364l0,0c-1.365-30.068-26.848-53.337-56.916-51.972l-78.586,3.568
				c-32.459,1.474-57.578,28.981-56.104,61.441L1200.889,696.783z"/>
			<circle fill="#F6C286" cx="1395.276" cy="745.017" r="19"/>
			<g>
				<circle fill="#8F5201" cx="1315.699" cy="745.126" r="8.5"/>
				<circle fill="#8F5201" cx="1250.767" cy="748.074" r="8.5"/>
			</g>
			<path fill="#E75A63" d="M1255.918,784.378c0,0,3.12,10.87,31.295,9.59c28.176-1.279,29.643-12.357,29.643-12.357
				L1255.918,784.378z"/>
			<path fill="#D6A676" d="M1296.02,764.539c-0.186,5.026-6.527,9.306-14.536,9.669c-8.01,0.364-14.714-3.323-15.354-8.312
				L1296.02,764.539z"/>
			<path fill="#CA884B" d="M1307.368,726.985l24.974-1.134c1.655-0.075,2.937-1.478,2.861-3.133l0,0
				c-0.075-1.655-1.478-2.936-3.133-2.861l-24.975,1.134c-1.655,0.075-2.936,1.478-2.861,3.133l0,0
				C1304.311,725.779,1305.713,727.061,1307.368,726.985z"/>
			<path fill="#CA884B" d="M1237.439,730.16l24.975-1.134c1.655-0.075,2.937-1.478,2.861-3.133l0,0
				c-0.075-1.655-1.479-2.936-3.133-2.861l-24.975,1.134c-1.655,0.075-2.937,1.478-2.861,3.133l0,0
				C1234.382,728.954,1235.785,730.235,1237.439,730.16z"/>
		</g>
		<path fill="#C0283F" d="M1510.539,966.306l-66.401,11.793V842.474l6.828,3.135c18.73,8.601,32.965,25.736,38.862,46.782
			L1510.539,966.306z"/>
		<path fill="#C0283F" d="M1169.736,968.474l66.401,12v-138l-6.828,3.19c-18.73,8.752-32.965,26.187-38.862,47.602L1169.736,968.474
			z"/>
		<rect x="1236.138" y="978.099" fill="#C0283F" width="208" height="209.654"/>
		<path fill="#5B7FAF" d="M1444.138,1184.521v22.526c0,44.527-30.444,80.623-68,80.623h-122.799c-9.255,0-16.286,9.872-14.734,20.69
			l31.033,216.436h-34l-58.011-209.794c-13.518-48.889,12.256-100.736,54.878-110.396l88.633-20.086H1444.138z"/>
		<g>
			<path fill="#F6C286" d="M1361.502,1118.913l142.216-14.727c6.609,0,12.842-3.073,16.865-8.316
				c4.024-5.242,5.381-12.058,3.672-18.442l-29.024-108.403l-42.02,7.463l22.807,85.18l-121.171,33.795L1361.502,1118.913z"/>
		</g>
		<path fill="#F6C286" d="M1307.863,1118.913h53.639v-12.519c0-12.232-9.916-22.148-22.147-22.148h-13.304
			c-14.595,0-26.427,11.832-26.427,26.427v0.001C1299.624,1115.224,1303.313,1118.913,1307.863,1118.913z"/>
		<path fill="#F6C286" d="M995.347,1130.293h52.542c5.157,0,9.337-4.181,9.337-9.337v-3.182c0-12.232-9.917-22.148-22.148-22.148
			h-6.98c-18.087,0-32.75,14.663-32.75,32.75V1130.293z"/>
		<g>
			<path fill="#E7EFF1" d="M1386.748,1119.246H1070.9v11.067c0,6.368,5.162,11.529,11.529,11.529h322.198v-4.718
				C1404.627,1127.251,1396.622,1119.246,1386.748,1119.246z"/>
			<g>
				<polygon fill="#A8DCE7" points="1070.664,1118.913 1296.266,1118.913 1226.85,941.124 1001.248,941.124 				"/>
				<polygon fill="#82C5CE" points="1236.249,934.458 1010.293,934.458 1001.248,941.124 1227.203,941.124 				"/>
				<polygon fill="#82C5CE" points="1296.266,1118.913 1309.127,1118.913 1236.249,934.458 1226.85,941.124 				"/>
			</g>
			<path fill="#C8CDCE" d="M1309.127,1118.913H1070.9v11.067c0,6.552,5.311,11.862,11.862,11.862h226.365V1118.913z"/>
			<rect x="1296.266" y="1118.913" fill="#DEE1E2" width="12.861" height="22.93"/>
			<g>
				<path fill="#FFFFFF" d="M1116.676,984.761h23.047l8.985,22.835h-23.047L1116.676,984.761z M1137.791,987.596h-16.953
					l6.755,17.165h16.953L1137.791,987.596z"/>
			</g>
		</g>
		<g>
			<path fill="#8F9293" d="M993.332,1116.238h12.749v-1.23c0-3.521-2.854-6.374-6.375-6.374l0,0c-3.52,0-6.374,2.854-6.374,6.374
				V1116.238z"/>
			<path fill="#E7EFF1" d="M974.92,1139.344h65.723l0,0c0-15.168-12.296-27.465-27.464-27.465h-10.794
				C987.216,1111.879,974.92,1124.176,974.92,1139.344L974.92,1139.344z"/>
			<path fill="#C8CDCE" d="M1000.967,1114.296h4.511v21.321h-27.465l0,0C978.012,1124.477,988.289,1114.296,1000.967,1114.296z"/>
			<path fill="#8F9293" d="M976.977,1141.399h61.61c1.135,0,2.056-0.92,2.056-2.056l0,0H974.92l0,0
				C974.92,1140.479,975.841,1141.399,976.977,1141.399z"/>
		</g>
		<path fill="#F6C286" d="M999.953,1122.157L999.953,1122.157c1.366,2.976,4.886,4.281,7.862,2.915l22.889-10.505
			c2.976-1.365,4.282-4.886,2.916-7.862l0,0c-1.366-2.976-4.886-4.281-7.862-2.915l-22.889,10.505
			C999.892,1115.661,998.587,1119.181,999.953,1122.157z"/>
	</g>
</g>
<g id="_x33_">
	<g>
		<g>
			<rect x="1661.668" y="1513.113" fill="#F6C286" width="24.904" height="24.903"/>
			<path fill="#262626" d="M1615.511,1570.017h60.062c6.075,0,11-4.925,11-11v-21h-55.939c-13.013,0-23.561,10.549-23.561,23.562
				l0,0C1607.072,1566.238,1610.85,1570.017,1615.511,1570.017z"/>
		</g>
		<g>
			<rect x="1768.427" y="1513.113" fill="#F6C286" width="24.903" height="24.903"/>
			<path fill="#262626" d="M1809.389,1562.063h-57.021v-6.944c0-13.838,11.218-25.056,25.056-25.056h6.909
				c13.838,0,25.056,11.218,25.056,25.056V1562.063z"/>
		</g>
		<polygon fill="#3A3A3A" points="1808.223,1030.019 1600.223,1030.019 1600.223,1068.795 1650.336,1524.796 1698.729,1524.796 
			1698.729,1135.462 1717.959,1135.462 1759.782,1524.796 1808.177,1524.796 1808.223,1068.795 1808.124,1068.795 		"/>
		<g>
			<path fill="#EDB57E" d="M1535.142,926.454c-9.419,0-18.76-2.808-26.928-8.339l-70.433-75.962l14.588-20.054l82.805,56.074
				l8.063-80.985l47.571,8.597l-7.69,77.235c-1.696,17.044-11.97,31.559-27.48,38.827
				C1549.059,924.929,1542.078,926.454,1535.142,926.454z"/>
		</g>
		<g>
			<path fill="#EDB57E" d="M1831.576,1053.246l-15.887-32.45l38.623-51.771c13.635-23.229-37.676-163.831-37.676-163.831
				l46.814-11.449l28.558,117.208c5.86,24.056,8.938,58.072-7.501,82.843L1831.576,1053.246z"/>
		</g>
		<path fill="#F6C286" d="M1403.001,842.153h53.639v-12.519c0-12.232-9.917-22.148-22.148-22.148h-13.303
			c-14.596,0-26.428,11.832-26.428,26.427l0,0C1394.761,838.464,1398.45,842.153,1403.001,842.153z"/>
		<g>
			<polygon fill="#39AFDD" points="1594.83,1082.926 1813.616,1082.926 1813.616,675.91 1739.985,649.111 1668.459,649.111 
				1594.83,675.91 			"/>
			<path fill="#36A4C6" d="M1739.986,649.111h-71.526l-70.825,25.779c28.158,25.575,65.553,41.161,106.588,41.161
				c41.036,0,78.431-15.586,106.589-41.161L1739.986,649.111z"/>
			<path fill="#39AFDD" d="M1881.947,822.176l-73.725,14.12V673.947l5.394,1.963c18.73,8.205,34.399,27.54,40.297,47.615
				L1881.947,822.176z"/>
			<path fill="#39AFDD" d="M1531.447,829.295l68.775,7V673.947l-5.393,1.963c-18.73,8.4-34.399,27.322-40.297,47.876
				L1531.447,829.295z"/>
			<g>
				<rect x="1600.223" y="775.831" fill="#EDECEB" width="208" height="17.452"/>
				<rect x="1600.223" y="812.855" fill="#EDECEB" width="208" height="40.512"/>
			</g>
		</g>
		<path fill="#EFAE6F" d="M1704.223,698.111L1704.223,698.111c18.778,0,34-15.222,34-34v-79h-68v79
			C1670.223,682.889,1685.445,698.111,1704.223,698.111z"/>
		<path fill="#CA884B" d="M1576.37,483.361c-13.324,18.288-18.894,42.581-13.243,67.021l11.58,50.084
			c0.453,1.958,0.966,3.885,1.524,5.787c14.323-10.474,21.747-29.431,17.327-48.551L1576.37,483.361z"/>
		<path fill="#F6C286" d="M1671.417,676.925L1671.417,676.925c49.504-11.446,80.356-60.855,68.91-110.36l-11.038-47.741
			c-9.58-41.433-50.934-67.255-92.366-57.675l-14.614,3.379c-41.434,9.58-67.256,50.934-57.676,92.366l14.417,62.355
			C1588.63,660.683,1629.983,686.505,1671.417,676.925z"/>
		<path fill="#8F5201" d="M1686.465,457.905c19.999,10.583,35.668,29.966,41.318,54.406l11.58,50.084
			c0.452,1.958,0.838,3.915,1.171,5.869c-17.468-3.124-32.46-16.897-36.88-36.017L1686.465,457.905z"/>
		<circle fill="#F6C286" cx="1740.777" cy="568.514" r="19"/>
		<g>
			<circle fill="#8F5201" cx="1662.533" cy="583.012" r="8.5"/>
			<circle fill="#8F5201" cx="1599.204" cy="597.655" r="8.5"/>
		</g>
		<path fill="#E75A63" d="M1622.264,629.786c0,0,4.052,10.354,20.963,6.443s15.613-14.9,15.613-14.9L1622.264,629.786z"/>
		<path fill="#D6A676" d="M1646.688,605.664c0.727,4.977-4.736,10.333-12.548,12.139c-7.813,1.806-15.072-0.608-16.604-5.398
			L1646.688,605.664z"/>
		<path fill="#CA884B" d="M1651.059,566.677l24.356-5.631c1.614-0.374,2.621-1.984,2.247-3.599l0,0
			c-0.373-1.614-1.984-2.621-3.599-2.248l-24.357,5.632c-1.614,0.374-2.62,1.984-2.247,3.599l0,0
			C1647.833,566.044,1649.443,567.051,1651.059,566.677z"/>
		<path fill="#CA884B" d="M1582.857,582.446l24.357-5.632c1.614-0.373,2.62-1.984,2.247-3.599l0,0
			c-0.373-1.614-1.984-2.62-3.599-2.247l-24.357,5.632c-1.614,0.373-2.62,1.984-2.247,3.599l0,0
			C1579.632,581.813,1581.243,582.819,1582.857,582.446z"/>
		<path fill="#8F5201" d="M1612.091,522.439c0,0-15.362,47.78-42.952,53.941c0,0-48.525-108.059,35.145-107.685
			c0,0,108.58-71.51,122.871,47.724C1727.154,516.42,1674.629,557.93,1612.091,522.439z"/>
		<path fill="#F6C286" d="M1800.555,1062.269l-3.845-40.94c-0.646-6.884,4.41-12.987,11.294-13.634l0,0
			c12.179-1.144,22.979,7.803,24.121,19.98l1.244,13.245c1.364,14.531-9.31,27.417-23.841,28.781h-0.001
			C1804.997,1070.127,1800.979,1066.799,1800.555,1062.269z"/>
	</g>
</g>
<g id="_x32__1_">
	<g>
		<g>
			<rect x="947.975" y="1513.113" fill="#F6C286" width="24.904" height="24.903"/>
			<path fill="#492A15" d="M1019.036,1570.017h-60.061c-6.075,0-11-4.925-11-11v-21h55.939c13.012,0,23.561,10.549,23.561,23.562
				l0,0C1027.475,1566.238,1023.696,1570.017,1019.036,1570.017z"/>
		</g>
		<g>
			<path fill="#F6C286" d="M955.381,1027.108l-153.42,52.435c-10.099,4.055-21.629-0.171-26.716-9.791l-46.667-88.262l35.793-23.271
				l39.513,74.733l146.09-29.124L955.381,1027.108z"/>
		</g>
		<g>
			<g>
				<rect x="661.542" y="1338.32" fill="#0F102E" width="15.283" height="88.073"/>
				<path fill="#513118" d="M698.024,1190.22v-174.813c0-21.592-17.504-39.096-39.096-39.096H521.12
					c-21.592,0-39.096,17.504-39.096,39.096v238.813c0,53.415,43.302,96.717,96.716,96.717h303.284l0,0c0-35.347-28.654-64-64-64
					H794.74C741.326,1286.937,698.024,1243.635,698.024,1190.22z"/>
				<path fill="#422414" d="M578.74,1350.937h303.284l0,0c0-35.347-28.654-64-64-64H794.74c-4.994,0-9.9-0.379-14.69-1.109H487.313
					C500.411,1323.72,536.395,1350.937,578.74,1350.937z"/>
			</g>
			<g>
				<g>
					<path fill="#4F4F4F" d="M729.151,1473.992h-18.116h-1.59h-80.091h-0.422h-19.284c-21.995,0-39.89,17.895-39.89,39.891v32.18
						h12.475v-12.475v-17.468v-2.237c0-15.117,12.298-27.415,27.415-27.415h19.284h0.422h80.091h1.59h18.116
						c15.117,0,27.415,12.298,27.415,27.415v2.237v17.468v12.475h12.475v-32.18C769.041,1491.887,751.146,1473.992,729.151,1473.992
						z"/>
					<path fill="#110E2B" d="M772.992,1569.468L772.992,1569.468c-9.128,0-16.527-7.399-16.527-16.527v-16.527h16.527
						c9.128,0,16.527,7.399,16.527,16.527l0,0C789.52,1562.068,782.12,1569.468,772.992,1569.468z"/>
					<path fill="#110E2B" d="M565.658,1569.59L565.658,1569.59c9.128,0,16.528-7.399,16.528-16.527v-16.527h-16.528
						c-9.128,0-16.527,7.4-16.527,16.527l0,0C549.13,1562.19,556.53,1569.59,565.658,1569.59z"/>
				</g>
				<rect x="659.542" y="1382.357" fill="#8F9293" width="19.283" height="93.109"/>
				<g>
					<path fill="#8F9293" d="M689.031,1473.688h-39.412c-21.996,0-39.89,17.894-39.89,39.89v32.18h12.475v-12.475v-17.468v-2.237
						c0-15.117,12.298-27.415,27.415-27.415h39.412c15.116,0,27.415,12.298,27.415,27.415v2.237v17.468v12.475h12.475v-32.18
						C728.921,1491.582,711.026,1473.688,689.031,1473.688z"/>
					<path fill="#110E2B" d="M732.814,1569.163L732.814,1569.163c-9.128,0-16.527-7.399-16.527-16.527v-16.527h16.527
						c9.128,0,16.527,7.399,16.527,16.527l0,0C749.341,1561.764,741.942,1569.163,732.814,1569.163z"/>
					<path fill="#110E2B" d="M605.629,1569.285L605.629,1569.285c9.127,0,16.527-7.399,16.527-16.527v-16.527h-16.527
						c-9.128,0-16.528,7.399-16.528,16.527l0,0C589.101,1561.886,596.501,1569.285,605.629,1569.285z"/>
				</g>
			</g>
		</g>
		<path fill="#96562A" d="M654.769,1184.521v22.526c0,44.527,30.445,80.623,68,80.623h122.799c9.255,0,20.711,30.712,27.786,56.957
			l64.838,180.169h49.533l-62.615-212c-21.5-74.5-16.086-98.53-58.708-108.189l-88.633-20.086H654.769z"/>
		<g>
			<rect x="698.541" y="1513.113" fill="#F6C286" width="24.904" height="24.903"/>
			<path fill="#492A15" d="M769.602,1570.017h-60.061c-6.075,0-11-4.925-11-11v-21h55.939c13.012,0,23.561,10.549,23.561,23.562l0,0
				C778.041,1566.238,774.263,1570.017,769.602,1570.017z"/>
		</g>
		<path fill="#B66E34" d="M519.708,1184.521v22.526c0,44.527,30.445,80.623,68,80.623h122.799c9.255,0,16.286,9.872,14.735,20.69
			l-31.034,216.436h34l58.01-209.794c13.519-48.889-12.255-100.736-54.877-110.396l-88.633-20.086H519.708z"/>
		<path fill="#C0283F" d="M774.268,919.14c-5.897-23.062-20.131-41.837-38.862-51.262l-6.828-3.436v-0.054l-70-21.887h-68
			l-70,21.887v0.054l-6.828,3.376c-18.731,9.262-32.965,27.715-38.862,50.379l-27.173,154.532l54.028,9.827l18.834-72.063v186.301
			h208v-183.743l40.031,54.243l38.5-30.5L774.268,919.14z"/>
		<g>
			<path fill="#F6C286" d="M604.567,1143.684l-142.215-14.727c-6.609,0-12.842-3.073-16.865-8.316
				c-4.024-5.242-5.38-12.058-3.671-18.442l5.9-29.468l43.938,7.991l-1.6,5.716l121.17,33.796L604.567,1143.684z"/>
		</g>
		<path fill="#F6C286" d="M658.206,1143.684h-53.639v-12.519c0-12.231,9.916-22.147,22.148-22.147h13.303
			c14.595,0,26.427,11.831,26.427,26.427l0,0C666.446,1139.995,662.757,1143.684,658.206,1143.684z"/>
		<polygon fill="#EFAE6F" points="590.578,849.237 624.578,958.219 658.578,852.129 658.578,778.501 590.578,778.501 		"/>
		<path fill="#3A3A3A" d="M623.907,889.524L623.907,889.524c-9.331,0-17.77-4.021-23.914-10.106l24.584,78.801l25.625-79.959
			C643.981,885.172,633.94,889.524,623.907,889.524z"/>
		<g>
			<path fill="#CA884B" d="M690.636,639.238c17.101,14.816,28,37.23,28,62.314v51.405c0,2.01-0.065,4.003-0.181,5.982
				c-16.315-6.978-27.819-23.775-27.819-43.4V639.238z"/>
			<path fill="#F6C286" d="M641.636,849.237L641.636,849.237c-50.81,0-92-41.189-92-92v-49c0-42.526,34.474-77,77-77h15
				c42.526,0,77,34.474,77,77v64C718.636,814.764,684.162,849.237,641.636,849.237z"/>
			<path fill="#CA884B" d="M577.636,639.238c-17.101,14.816-28,37.23-28,62.314v51.405c0,2.01,0.065,4.003,0.181,5.982
				c16.315-6.978,27.819-23.775,27.819-43.4V639.238z"/>
			<circle fill="#F6C286" cx="549.636" cy="759.238" r="19"/>
			<g>
				<circle fill="#8F5201" cx="632.636" cy="759.238" r="8.5"/>
				<circle fill="#8F5201" cx="697.636" cy="759.238" r="8.5"/>
			</g>
			<path fill="#FCF2E6" d="M690.636,792.238c0,0-2.624,11-30.828,11c-28.204,0-30.172-11-30.172-11H690.636z"/>
			<path fill="#D6A676" d="M649.676,774.238c0.413,5.013,6.942,9,14.96,9s14.547-3.987,14.96-9H649.676z"/>
			<path fill="#CA884B" d="M636.792,736.486l-24.956,1.493c-1.654,0.099-3.075-1.162-3.173-2.815l0,0
				c-0.099-1.654,1.162-3.075,2.815-3.174l24.956-1.493c1.654-0.099,3.075,1.162,3.173,2.815l0,0
				C639.707,734.966,638.446,736.387,636.792,736.486z"/>
			<path fill="#CA884B" d="M706.35,738.246l-24.917-2.037c-1.651-0.135-2.88-1.583-2.745-3.235l0,0
				c0.135-1.651,1.583-2.88,3.234-2.746l24.917,2.037c1.652,0.135,2.881,1.583,2.746,3.235l0,0
				C709.449,737.152,708.001,738.381,706.35,738.246z"/>
			<path fill="#CA884B" d="M685.488,610.5H606.97c-35.067,0-63.494,28.427-63.494,63.494l0,0c0,13.86,11.236,25.095,25.095,25.095
				h155.315c13.86,0,25.095-11.235,25.095-25.095l0,0C748.981,638.927,720.554,610.5,685.488,610.5z"/>
		</g>
		<g>
			<polygon fill="#72B0B5" points="936.323,1111.623 799.83,1111.623 829.323,887.113 966.877,887.113 			"/>
			<polygon fill="#F7F3E8" points="926.323,1111.623 789.83,1111.623 820.384,887.113 956.877,887.113 			"/>
			<polygon fill="#82C5CE" points="938.323,925.998 841.323,925.998 844.088,908.998 941.088,908.998 			"/>
		</g>
		<path fill="#F6C286" d="M959.272,1025.482l-26.379,17.722c-5.919,3.977-13.941,2.401-17.918-3.518h0
			c-6.7-9.974-4.046-23.489,5.927-30.189l18.796-12.628c8.013-5.383,18.873-3.251,24.256,4.762h0
			C969.248,1009.511,967.152,1020.188,959.272,1025.482z"/>
		<polygon fill="#A5233C" points="501.744,1082.558 447.715,1072.73 450.48,1057.009 505.969,1066.39 		"/>
		<polygon fill="#A5233C" points="768.609,1067.296 807.109,1036.796 801.108,1015.296 756.256,1050.557 		"/>
	</g>
</g>
<g id="_x31_">
	<path fill="#CA884B" d="M1776.686,246.12"/>
	<g>
		<rect x="228.999" y="1141.296" fill="#78CDD0" width="1831.105" height="41.256"/>
		<g>
			<polygon fill="#E5E5E5" points="401.431,1570.017 435.399,1570.017 394.232,1182.552 360.264,1182.552 			"/>
			<polygon fill="#FDFCFF" points="285.28,1570.017 251.312,1570.017 292.479,1182.552 326.447,1182.552 			"/>
			<polygon fill="#FDFCFF" points="2007.205,1570.017 2041.173,1570.017 2000.006,1182.552 1966.038,1182.552 			"/>
			<polygon fill="#E5E5E5" points="1891.054,1570.017 1857.085,1570.017 1898.252,1182.552 1932.221,1182.552 			"/>
			<rect x="259.812" y="1182.552" fill="#FDFCFF" width="1772.087" height="14.244"/>
		</g>
	</g>
</g>
</svg>
