<?xml version="1.0" standalone="no"?><svg xmlns="http://www.w3.org/2000/svg" viewBox="0 0 1440 320"><path fill="#5221e64f" fill-opacity="1" d="M0,160L20,160C40,160,80,160,120,138.7C160,117,200,75,240,74.7C280,75,320,117,360,117.3C400,117,440,75,480,85.3C520,96,560,160,600,165.3C640,171,680,117,720,128C760,139,800,213,840,218.7C880,224,920,160,960,149.3C1000,139,1040,181,1080,165.3C1120,149,1160,75,1200,53.3C1240,32,1280,64,1320,85.3C1360,107,1400,117,1420,122.7L1440,128L1440,320L1420,320C1400,320,1360,320,1320,320C1280,320,1240,320,1200,320C1160,320,1120,320,1080,320C1040,320,1000,320,960,320C920,320,880,320,840,320C800,320,760,320,720,320C680,320,640,320,600,320C560,320,520,320,480,320C440,320,400,320,360,320C320,320,280,320,240,320C200,320,160,320,120,320C80,320,40,320,20,320L0,320Z"></path></svg>